<svg id="Ebene_1" data-name="Ebene 1" xmlns="http://www.w3.org/2000/svg" viewBox="0 0 283.46 141.73"><defs><style>.cls-1{fill:#9d9d9c;}.cls-2{fill:#e30613;}</style></defs><path class="cls-1" d="M62.43,116.77H51A30.63,30.63,0,0,1,20.54,86V85A30.5,30.5,0,0,1,51,54.54h3.38A31,31,0,0,1,85.32,25c14.44,0,30,9,30,23.55a3.5,3.5,0,0,1-7,0c0-10.22-11.95-16.55-23-16.55a24,24,0,0,0-24,24V58a3.5,3.5,0,0,1-3.5,3.5H51A23.49,23.49,0,0,0,27.54,85v1c0,12.87,10.74,23.74,23.46,23.74H62.43a3.5,3.5,0,1,1,0,7Z"/><path class="cls-2" d="M160.12,114.19a3.78,3.78,0,0,0,2.93-1.1,4.21,4.21,0,0,0,1-3v-48a4.13,4.13,0,0,0-1.07-3,3.84,3.84,0,0,0-2.89-1.1,3.67,3.67,0,0,0-2.81,1.14,4.14,4.14,0,0,0-1.06,2.95v48a4.1,4.1,0,0,0,1.06,3,3.71,3.71,0,0,0,2.81,1.1"/><path class="cls-2" d="M193.53,114.64a26.23,26.23,0,0,0,10.6-2,16.57,16.57,0,0,0,7.15-5.7,14.48,14.48,0,0,0,2.55-8.44,11.59,11.59,0,0,0-2.47-7.64,16.72,16.72,0,0,0-6.62-4.67,74.23,74.23,0,0,0-10.83-3.28q-6.39-1.59-9.28-3.53a6.47,6.47,0,0,1-2.89-5.74A8.24,8.24,0,0,1,185,66.69q3.27-2.49,9.13-2.49a20,20,0,0,1,7.41,1.23,27.1,27.1,0,0,1,6.57,4,4.86,4.86,0,0,0,2.51,1,2.33,2.33,0,0,0,1.87-1,3.74,3.74,0,0,0,.79-2.37,4.17,4.17,0,0,0-1.52-3.25A20.74,20.74,0,0,0,204,59.13a30.32,30.32,0,0,0-10-1.58,24.7,24.7,0,0,0-10.42,2.1,16.71,16.71,0,0,0-7.1,5.86A14.93,14.93,0,0,0,174,74.1a13,13,0,0,0,2.32,8,15.57,15.57,0,0,0,6.42,5,56.68,56.68,0,0,0,10.49,3.25A39,39,0,0,1,203,93.57,5.67,5.67,0,0,1,206,98.8a7.9,7.9,0,0,1-3.27,6.81c-2.18,1.58-5.3,2.38-9.35,2.38a24.61,24.61,0,0,1-15.44-5.23,4.86,4.86,0,0,0-2.58-1,2.26,2.26,0,0,0-1.83,1,3.87,3.87,0,0,0-.76,2.41,4.11,4.11,0,0,0,1.45,3.25,21.5,21.5,0,0,0,8.32,4.59,35.89,35.89,0,0,0,11,1.67"/><path class="cls-2" d="M240.12,114.29a3.84,3.84,0,0,0,2.89-1.1,4,4,0,0,0,1.06-2.86V65.69h15.21q3.64,0,3.65-3.28A3.09,3.09,0,0,0,262,60a4,4,0,0,0-2.7-.84H221a4,4,0,0,0-2.7.84,3.09,3.09,0,0,0-.95,2.44q0,3.28,3.65,3.28h15.21v44.64a3.77,3.77,0,0,0,4,4"/><path class="cls-2" d="M147.76,86.2c0-18.38-11.73-30-30.74-30.54H100.78a3.48,3.48,0,0,0-3.5,3.47h0v16a3.5,3.5,0,0,0,7,0V62.63h12.37c14.8.33,23.62,9.07,23.62,23.57s-8.82,23.24-23.62,23.57H73.13a3.49,3.49,0,1,0,0,7s43.8,0,43.89,0C136,116.17,147.76,104.58,147.76,86.2Z"/></svg>